<svg viewBox="0 0 20 20" xmlns="http://www.w3.org/2000/svg" xmlns:xlink="http://www.w3.org/1999/xlink" width="20.000000" height="20.000000" fill="none">
	<rect id="Frame" width="20.000000" height="20.000000" x="0.000000" y="0.000000" fill="rgb(255,255,255)" fill-opacity="0" />
	<path id="Vector" d="M0 0L20 0L20 20L0 20L0 0Z" fill-rule="nonzero" />
	<path id="Vector" d="M8.33334 6.66658L8.33334 4.99992C8.33334 4.55789 8.50894 4.13397 8.8215 3.82141C9.13406 3.50885 9.55798 3.33325 10 3.33325L15.8333 3.33325C16.2754 3.33325 16.6993 3.50885 17.0119 3.82141C17.3244 4.13397 17.5 4.55789 17.5 4.99992L17.5 14.9999C17.5 15.4419 17.3244 15.8659 17.0119 16.1784C16.6993 16.491 16.2754 16.6666 15.8333 16.6666L10 16.6666C9.55798 16.6666 9.13406 16.491 8.8215 16.1784C8.50894 15.8659 8.33334 15.4419 8.33334 14.9999L8.33334 13.3333" fill-rule="nonzero" stroke="rgb(102,103,104)" stroke-linecap="round" stroke-linejoin="round" stroke-width="1.500000" />
	<path id="Vector" d="M12.5 10L2.5 10L5 7.5" fill-rule="nonzero" stroke="rgb(102,103,104)" stroke-linecap="round" stroke-linejoin="round" stroke-width="1.500000" />
	<path id="Vector" d="M5 12.5L2.5 10" fill-rule="nonzero" stroke="rgb(102,103,104)" stroke-linecap="round" stroke-linejoin="round" stroke-width="1.500000" />
</svg>
